{
  "source": "C:\\Users\\Peter\\Desktop\\stuff\\MIUN\\quantitative_research\\video_compression\\videos\\HEVC_CLASS_B\\BQTerrace_1920x1080_60.y4m",
  "output": "C:\\Users\\Peter\\Desktop\\stuff\\MIUN\\quantitative_research\\video_compression\\compressed_videos\\HEVC_CLASS_B\\av1\\12\\BQTerrace_1920x1080_60_av1.mkv",
  "codec": "av1",
  "ok": "Input #0, yuv4mpegpipe, from 'C:\\Users\\Peter\\Desktop\\stuff\\MIUN\\quantitative_research\\video_compression\\videos\\HEVC_CLASS_B\\BQTerrace_1920x1080_60.y4m':\n  Duration: 00:00:10.00, start: 0.000000, bitrate: 1492994 kb/s\n  Stream #0:0: Video: rawvideo (I420 / 0x30323449), yuv420p(progressive), 1920x1080, 60 fps, 60 tbr, 60 tbn\n[out#0/matroska @ 00000255f3309380] Codec AVOption b:a (set bitrate (in bits/s)) has not been used for any stream. The most likely reason is either wrong type (e.g. a video option with no video streams) or that it is a private option of some decoder which was not actually used for any stream.\nStream mapping:\n  Stream #0:0 -> #0:0 (rawvideo (native) -> av1 (libsvtav1))\nPress [q] to stop, [?] for help\nSvt[info]: -------------------------------------------\nSvt[info]: SVT [version]:\tSVT-AV1 Encoder Lib v3.1.0-19-g6ecfe8ec\nSvt[info]: SVT [build]  :\tGCC 15.2.0\t 64 bit\nSvt[info]: LIB Build date: Aug 17 2025 11:37:13\nSvt[info]: -------------------------------------------\n[libsvtav1 @ 00000255f330c4c0] Specified chroma sample location center is unsupported on the AV1 bit stream level. Usage of a container that allows passing this information - such as Matroska - is recommended.\nSvt[info]: Level of Parallelism: 5\nSvt[info]: Number of PPCS 93\nSvt[info]: [asm level on system : up to avx2]\nSvt[info]: [asm level selected : up to avx2]\nSvt[info]: -------------------------------------------\nSvt[info]: SVT [config]: main profile\ttier (auto)\tlevel (auto)\nSvt[info]: SVT [config]: width / height / fps numerator / fps denominator \t\t: 1920 / 1080 / 60 / 1\nSvt[info]: SVT [config]: bit-depth / color format \t\t\t\t\t: 8 / YUV420\nSvt[info]: SVT [config]: preset / tune / pred struct \t\t\t\t\t: 4 / PSNR / random access\nSvt[info]: SVT [config]: gop size / mini-gop size / key-frame type \t\t\t: 321 / 16 / key frame\nSvt[info]: SVT [config]: BRC mode / target bitrate (kbps)\t\t\t\t: VBR / 12000 \nSvt[info]: SVT [config]: AQ mode / Variance Boost \t\t\t\t\t: 2 / 0\nSvt[info]: SVT [config]: sharpness / luminance-based QP bias \t\t\t\t: 0 / 0\nSvt[info]: SVT [config]: QP scale compress strength \t\t\t\t\t: 0\nSvt[info]: -------------------------------------------\nOutput #0, matroska, to 'C:\\Users\\Peter\\Desktop\\stuff\\MIUN\\quantitative_research\\video_compression\\compressed_videos\\HEVC_CLASS_B\\av1\\12\\BQTerrace_1920x1080_60_av1.mkv':\n  Metadata:\n    encoder         : Lavf62.3.100\n  Stream #0:0: Video: av1 (AV01 / 0x31305641), yuv420p(tv, progressive), 1920x1080, q=2-31, 12000 kb/s, 60 fps, 1k tbn\n    Metadata:\n      encoder         : Lavc62.11.100 libsvtav1\n    Side data:\n      cpb: bitrate max/min/avg: 0/0/12000000 buffer size: 12000000 vbv_delay: N/A\nframe=    0 fps=0.0 q=0.0 size=       0KiB time=N/A bitrate=N/A speed=N/A elapsed=0:00:04.08    \nframe=    0 fps=0.0 q=0.0 size=       0KiB time=N/A bitrate=N/A speed=N/A elapsed=0:00:05.16    \nframe=    0 fps=0.0 q=0.0 size=       0KiB time=N/A bitrate=N/A speed=N/A elapsed=0:00:08.29    \nframe=    0 fps=0.0 q=0.0 size=       0KiB time=N/A bitrate=N/A speed=N/A elapsed=0:00:08.83    \nframe=    0 fps=0.0 q=0.0 size=       0KiB time=N/A bitrate=N/A speed=N/A elapsed=0:00:09.40    \nframe=    0 fps=0.0 q=0.0 size=       0KiB time=N/A bitrate=N/A speed=N/A elapsed=0:00:10.06    \nframe=    0 fps=0.0 q=0.0 size=       0KiB time=N/A bitrate=N/A speed=N/A elapsed=0:00:10.60    \nframe=    0 fps=0.0 q=0.0 size=       0KiB time=N/A bitrate=N/A speed=N/A elapsed=0:00:11.12    \nframe=    0 fps=0.0 q=0.0 size=       0KiB time=N/A bitrate=N/A speed=N/A elapsed=0:00:11.67    \nframe=    0 fps=0.0 q=0.0 size=       0KiB time=N/A bitrate=N/A speed=N/A elapsed=0:00:12.22    \nframe=    0 fps=0.0 q=0.0 size=       0KiB time=N/A bitrate=N/A speed=N/A elapsed=0:00:12.73    \nframe=    0 fps=0.0 q=0.0 size=       0KiB time=N/A bitrate=N/A speed=N/A elapsed=0:00:13.26    \nframe=    0 fps=0.0 q=0.0 size=       0KiB time=N/A bitrate=N/A speed=N/A elapsed=0:00:13.79    \nframe=    0 fps=0.0 q=0.0 size=       0KiB time=N/A bitrate=N/A speed=N/A elapsed=0:00:14.33    \nframe=    0 fps=0.0 q=0.0 size=       0KiB time=N/A bitrate=N/A speed=N/A elapsed=0:00:14.86    \nframe=    0 fps=0.0 q=0.0 size=       0KiB time=N/A bitrate=N/A speed=N/A elapsed=0:00:15.39    \nframe=    0 fps=0.0 q=0.0 size=       0KiB time=N/A bitrate=N/A speed=N/A elapsed=0:00:15.92    \nframe=    0 fps=0.0 q=0.0 size=       0KiB time=N/A bitrate=N/A speed=N/A elapsed=0:00:16.45    \nframe=    0 fps=0.0 q=0.0 size=       0KiB time=N/A bitrate=N/A speed=N/A elapsed=0:00:16.99    \nframe=    0 fps=0.0 q=0.0 size=       0KiB time=N/A bitrate=N/A speed=N/A elapsed=0:00:17.52    \nframe=    0 fps=0.0 q=0.0 size=       0KiB time=N/A bitrate=N/A speed=N/A elapsed=0:00:18.07    \nframe=    0 fps=0.0 q=0.0 size=       0KiB time=N/A bitrate=N/A speed=N/A elapsed=0:00:18.62    \nframe=    0 fps=0.0 q=0.0 size=       0KiB time=N/A bitrate=N/A speed=N/A elapsed=0:00:19.14    \nframe=    0 fps=0.0 q=0.0 size=       0KiB time=N/A bitrate=N/A speed=N/A elapsed=0:00:19.66    \nframe=    0 fps=0.0 q=0.0 size=       0KiB time=N/A bitrate=N/A speed=N/A elapsed=0:00:20.18    \nframe=    0 fps=0.0 q=0.0 size=       0KiB time=N/A bitrate=N/A speed=N/A elapsed=0:00:20.72    \nframe=    0 fps=0.0 q=0.0 size=       0KiB time=N/A bitrate=N/A speed=N/A elapsed=0:00:21.23    \nframe=    0 fps=0.0 q=0.0 size=       0KiB time=N/A bitrate=N/A speed=N/A elapsed=0:00:21.74    \nframe=    0 fps=0.0 q=0.0 size=       0KiB time=N/A bitrate=N/A speed=N/A elapsed=0:00:22.26    \nframe=    0 fps=0.0 q=0.0 size=       0KiB time=N/A bitrate=N/A speed=N/A elapsed=0:00:22.79    \nframe=    0 fps=0.0 q=0.0 size=       0KiB time=N/A bitrate=N/A speed=N/A elapsed=0:00:23.33    \nframe=    0 fps=0.0 q=0.0 size=       0KiB time=N/A bitrate=N/A speed=N/A elapsed=0:00:23.84    \nframe=    0 fps=0.0 q=0.0 size=       0KiB time=N/A bitrate=N/A speed=N/A elapsed=0:00:24.35    \nframe=    0 fps=0.0 q=0.0 size=       0KiB time=N/A bitrate=N/A speed=N/A elapsed=0:00:24.88    \nframe=    0 fps=0.0 q=0.0 size=       0KiB time=N/A bitrate=N/A speed=N/A elapsed=0:00:25.40    \nframe=    0 fps=0.0 q=0.0 size=       0KiB time=N/A bitrate=N/A speed=N/A elapsed=0:00:25.92    \nframe=    0 fps=0.0 q=0.0 size=       0KiB time=N/A bitrate=N/A speed=N/A elapsed=0:00:26.43    \nframe=    0 fps=0.0 q=0.0 size=       0KiB time=N/A bitrate=N/A speed=N/A elapsed=0:00:26.95    \nframe=    0 fps=0.0 q=0.0 size=       0KiB time=N/A bitrate=N/A speed=N/A elapsed=0:00:27.47    \nframe=    0 fps=0.0 q=0.0 size=       0KiB time=N/A bitrate=N/A speed=N/A elapsed=0:00:27.98    \nframe=    0 fps=0.0 q=0.0 size=       0KiB time=N/A bitrate=N/A speed=N/A elapsed=0:00:28.50    \nframe=    0 fps=0.0 q=0.0 size=       0KiB time=N/A bitrate=N/A speed=N/A elapsed=0:00:29.01    \nframe=    0 fps=0.0 q=0.0 size=       0KiB time=N/A bitrate=N/A speed=N/A elapsed=0:00:29.52    \nframe=    0 fps=0.0 q=0.0 size=       0KiB time=N/A bitrate=N/A speed=N/A elapsed=0:00:30.05    \nframe=    0 fps=0.0 q=0.0 size=       0KiB time=N/A bitrate=N/A speed=N/A elapsed=0:00:30.57    \nframe=    0 fps=0.0 q=0.0 size=       0KiB time=N/A bitrate=N/A speed=N/A elapsed=0:00:31.11    \nframe=    1 fps=0.0 q=8.0 size=       1KiB time=00:00:00.00 bitrate=N/A speed=   0x elapsed=0:00:31.64    \nframe=    1 fps=0.0 q=8.0 size=       1KiB time=00:00:00.00 bitrate=N/A speed=   0x elapsed=0:00:32.17    \nframe=    1 fps=0.0 q=8.0 size=       1KiB time=00:00:00.00 bitrate=N/A speed=   0x elapsed=0:00:32.71    \nframe=    1 fps=0.0 q=8.0 size=       1KiB time=00:00:00.00 bitrate=N/A speed=   0x elapsed=0:00:33.23    \nframe=    1 fps=0.0 q=8.0 size=       1KiB time=00:00:00.00 bitrate=N/A speed=   0x elapsed=0:00:33.75    \nframe=    1 fps=0.0 q=8.0 size=       1KiB time=00:00:00.00 bitrate=N/A speed=   0x elapsed=0:00:34.26    \nframe=    1 fps=0.0 q=8.0 size=       1KiB time=00:00:00.00 bitrate=N/A speed=   0x elapsed=0:00:34.78    \nframe=    1 fps=0.0 q=8.0 size=       1KiB time=00:00:00.00 bitrate=N/A speed=   0x elapsed=0:00:35.30    \nframe=    1 fps=0.0 q=8.0 size=       1KiB time=00:00:00.00 bitrate=N/A speed=   0x elapsed=0:00:35.81    \nframe=    1 fps=0.0 q=8.0 size=       1KiB time=00:00:00.00 bitrate=N/A speed=   0x elapsed=0:00:36.34    \nframe=    1 fps=0.0 q=8.0 size=       1KiB time=00:00:00.00 bitrate=N/A speed=   0x elapsed=0:00:36.86    \nframe=    1 fps=0.0 q=8.0 size=       1KiB time=00:00:00.00 bitrate=N/A speed=   0x elapsed=0:00:37.40    \nframe=    1 fps=0.0 q=8.0 size=       1KiB time=00:00:00.00 bitrate=N/A speed=   0x elapsed=0:00:37.92    \nframe=    1 fps=0.0 q=8.0 size=       1KiB time=00:00:00.00 bitrate=N/A speed=   0x elapsed=0:00:38.45    \nframe=    1 fps=0.0 q=8.0 size=       1KiB time=00:00:00.00 bitrate=N/A speed=   0x elapsed=0:00:38.97    \nframe=    2 fps=0.1 q=32.0 size=       1KiB time=00:00:00.00 bitrate=N/A speed=   0x elapsed=0:00:39.50    \nframe=    2 fps=0.0 q=32.0 size=       1KiB time=00:00:00.01 bitrate= 268.8kbits/s speed=0.000416x elapsed=0:00:40.02    \nframe=    4 fps=0.1 q=32.0 size=       1KiB time=00:00:00.05 bitrate=  89.6kbits/s speed=0.00123x elapsed=0:00:40.56    \nframe=    4 fps=0.1 q=32.0 size=       1KiB time=00:00:00.05 bitrate=  89.6kbits/s speed=0.00122x elapsed=0:00:41.08    \nframe=    5 fps=0.1 q=27.0 size=       1KiB time=00:00:00.06 bitrate=  67.2kbits/s speed=0.0016x elapsed=0:00:41.61    \nframe=    6 fps=0.1 q=28.0 size=       1KiB time=00:00:00.08 bitrate=  53.8kbits/s speed=0.00198x elapsed=0:00:42.15    \nframe=    6 fps=0.1 q=28.0 size=       1KiB time=00:00:00.08 bitrate=  53.8kbits/s speed=0.00195x elapsed=0:00:42.69    \nframe=    7 fps=0.2 q=28.0 size=       1KiB time=00:00:00.10 bitrate=  44.8kbits/s speed=0.00231x elapsed=0:00:43.21    \nframe=    7 fps=0.2 q=28.0 size=       1KiB time=00:00:00.10 bitrate=  44.8kbits/s speed=0.00229x elapsed=0:00:43.74    \nframe=    7 fps=0.2 q=28.0 size=       1KiB time=00:00:00.10 bitrate=  44.8kbits/s speed=0.00226x elapsed=0:00:44.27    \nframe=    7 fps=0.2 q=28.0 size=       1KiB time=00:00:00.10 bitrate=  44.8kbits/s speed=0.00223x elapsed=0:00:44.81    \nframe=    8 fps=0.2 q=28.0 size=       1KiB time=00:00:00.11 bitrate=  38.4kbits/s speed=0.00257x elapsed=0:00:45.34    \nframe=    8 fps=0.2 q=28.0 size=       1KiB time=00:00:00.11 bitrate=  38.4kbits/s speed=0.00254x elapsed=0:00:45.87    \nframe=    8 fps=0.2 q=28.0 size=       1KiB time=00:00:00.11 bitrate=  38.4kbits/s speed=0.00251x elapsed=0:00:46.42    \nframe=    9 fps=0.2 q=23.0 size=       1KiB time=00:00:00.13 bitrate=  33.6kbits/s speed=0.00284x elapsed=0:00:46.94    \nframe=   11 fps=0.2 q=28.0 size=       1KiB time=00:00:00.15 bitrate=  29.9kbits/s speed=0.00316x elapsed=0:00:47.46    \nframe=   12 fps=0.3 q=27.0 size=       1KiB time=00:00:00.18 bitrate=  24.4kbits/s speed=0.00382x elapsed=0:00:47.98    \nframe=   12 fps=0.2 q=27.0 size=       1KiB time=00:00:00.18 bitrate=  24.4kbits/s speed=0.00378x elapsed=0:00:48.52    \nframe=   12 fps=0.2 q=27.0 size=       1KiB time=00:00:00.18 bitrate=  24.4kbits/s speed=0.00374x elapsed=0:00:49.05    \nframe=   12 fps=0.2 q=27.0 size=       1KiB time=00:00:00.18 bitrate=  24.4kbits/s speed=0.0037x elapsed=0:00:49.58    \nframe=   13 fps=0.3 q=25.0 size=       1KiB time=00:00:00.20 bitrate=  22.4kbits/s speed=0.00399x elapsed=0:00:50.09    \nframe=   14 fps=0.3 q=26.0 size=       1KiB time=00:00:00.21 bitrate=  20.7kbits/s speed=0.00428x elapsed=0:00:50.63    \nframe=   15 fps=0.3 q=27.0 size=       1KiB time=00:00:00.23 bitrate=  19.2kbits/s speed=0.00456x elapsed=0:00:51.17    \nframe=   15 fps=0.3 q=27.0 size=       1KiB time=00:00:00.23 bitrate=  19.2kbits/s speed=0.00451x elapsed=0:00:51.71    \nframe=   16 fps=0.3 q=26.0 size=       1KiB time=00:00:00.25 bitrate=  17.9kbits/s speed=0.00479x elapsed=0:00:52.23    \nframe=   16 fps=0.3 q=26.0 size=       1KiB time=00:00:00.25 bitrate=  17.9kbits/s speed=0.00474x elapsed=0:00:52.76    \nframe=   16 fps=0.3 q=26.0 size=       1KiB time=00:00:00.25 bitrate=  17.9kbits/s speed=0.00469x elapsed=0:00:53.29    \nframe=   17 fps=0.3 q=14.0 size=       1KiB time=00:00:00.26 bitrate=  16.8kbits/s speed=0.00495x elapsed=0:00:53.82    \nframe=   18 fps=0.3 q=26.0 size=       1KiB time=00:00:00.28 bitrate=  15.8kbits/s speed=0.00521x elapsed=0:00:54.34    \nframe=   19 fps=0.3 q=27.0 size=       1KiB time=00:00:00.30 bitrate=  14.9kbits/s speed=0.00547x elapsed=0:00:54.86    \nframe=   20 fps=0.4 q=26.0 size=       1KiB time=00:00:00.31 bitrate=  14.1kbits/s speed=0.00572x elapsed=0:00:55.39    \nframe=   20 fps=0.4 q=26.0 size=       1KiB time=00:00:00.31 bitrate=  14.1kbits/s speed=0.00566x elapsed=0:00:55.91    \nframe=   20 fps=0.4 q=26.0 size=       1KiB time=00:00:00.31 bitrate=  14.1kbits/s speed=0.00561x elapsed=0:00:56.45    \nframe=   21 fps=0.4 q=26.0 size=       1KiB time=00:00:00.33 bitrate=  13.4kbits/s speed=0.00585x elapsed=0:00:56.98    \nframe=   21 fps=0.4 q=26.0 size=       1KiB time=00:00:00.33 bitrate=  13.4kbits/s speed=0.00579x elapsed=0:00:57.55    \nframe=   22 fps=0.4 q=25.0 size=       1KiB time=00:00:00.35 bitrate=  12.8kbits/s speed=0.00602x elapsed=0:00:58.09    \nframe=   23 fps=0.4 q=27.0 size=       1KiB time=00:00:00.36 bitrate=  12.2kbits/s speed=0.00625x elapsed=0:00:58.62    \nframe=   23 fps=0.4 q=27.0 size=       1KiB time=00:00:00.36 bitrate=  12.2kbits/s speed=0.0062x elapsed=0:00:59.13    \nframe=   23 fps=0.4 q=27.0 size=       1KiB time=00:00:00.36 bitrate=  12.2kbits/s speed=0.00615x elapsed=0:00:59.65    \nframe=   23 fps=0.4 q=27.0 size=       1KiB time=00:00:00.36 bitrate=  12.2kbits/s speed=0.00609x elapsed=0:01:00.18    \nframe=   24 fps=0.4 q=29.0 size=       1KiB time=00:00:00.38 bitrate=  11.7kbits/s speed=0.00631x elapsed=0:01:00.71    \nframe=   24 fps=0.4 q=29.0 size=       1KiB time=00:00:00.38 bitrate=  11.7kbits/s speed=0.00626x elapsed=0:01:01.23    \nframe=   24 fps=0.4 q=29.0 size=       1KiB time=00:00:00.38 bitrate=  11.7kbits/s speed=0.0062x elapsed=0:01:01.78    \nframe=   24 fps=0.4 q=29.0 size=       1KiB time=00:00:00.38 bitrate=  11.7kbits/s speed=0.00615x elapsed=0:01:02.33    \nframe=   25 fps=0.4 q=21.0 size=       1KiB time=00:00:00.40 bitrate=  11.2kbits/s speed=0.00636x elapsed=0:01:02.86    \nframe=   26 fps=0.4 q=25.0 size=       1KiB time=00:00:00.41 bitrate=  10.8kbits/s speed=0.00657x elapsed=0:01:03.38    \nframe=   26 fps=0.4 q=25.0 size=       1KiB time=00:00:00.41 bitrate=  10.8kbits/s speed=0.00652x elapsed=0:01:03.90    \nframe=   27 fps=0.4 q=27.0 size=       1KiB time=00:00:00.43 bitrate=  10.3kbits/s speed=0.00672x elapsed=0:01:04.43    \nframe=   27 fps=0.4 q=27.0 size=       1KiB time=00:00:00.43 bitrate=  10.3kbits/s speed=0.00667x elapsed=0:01:04.95    \nframe=   27 fps=0.4 q=27.0 size=       1KiB time=00:00:00.43 bitrate=  10.3kbits/s speed=0.00662x elapsed=0:01:05.48    \nframe=   28 fps=0.4 q=24.0 size=       1KiB time=00:00:00.45 bitrate=  10.0kbits/s speed=0.00681x elapsed=0:01:06.03    \nframe=   29 fps=0.4 q=24.0 size=       1KiB time=00:00:00.46 bitrate=   9.6kbits/s speed=0.00701x elapsed=0:01:06.55    \nframe=   29 fps=0.4 q=24.0 size=       1KiB time=00:00:00.46 bitrate=   9.6kbits/s speed=0.00696x elapsed=0:01:07.07    \nframe=   29 fps=0.4 q=24.0 size=       1KiB time=00:00:00.46 bitrate=   9.6kbits/s speed=0.0069x elapsed=0:01:07.61    \nframe=   31 fps=0.5 q=26.0 size=       1KiB time=00:00:00.50 bitrate=   9.0kbits/s speed=0.00734x elapsed=0:01:08.14    \nframe=   31 fps=0.5 q=26.0 size=       1KiB time=00:00:00.50 bitrate=   9.0kbits/s speed=0.00728x elapsed=0:01:08.67    \nframe=   31 fps=0.4 q=26.0 size=       1KiB time=00:00:00.50 bitrate=   9.0kbits/s speed=0.00722x elapsed=0:01:09.22    \nframe=   32 fps=0.5 q=24.0 size=       1KiB time=00:00:00.51 bitrate=   8.7kbits/s speed=0.00741x elapsed=0:01:09.75    \nframe=   32 fps=0.5 q=24.0 size=       1KiB time=00:00:00.51 bitrate=   8.7kbits/s speed=0.00735x elapsed=0:01:10.28    \nframe=   34 fps=0.5 q=31.0 size=       1KiB time=00:00:00.55 bitrate=   8.1kbits/s speed=0.00777x elapsed=0:01:10.80    \nframe=   35 fps=0.5 q=27.0 size=       1KiB time=00:00:00.56 bitrate=   7.9kbits/s speed=0.00794x elapsed=0:01:11.33    \nframe=   35 fps=0.5 q=27.0 size=       1KiB time=00:00:00.56 bitrate=   7.9kbits/s speed=0.00789x elapsed=0:01:11.84    \nframe=   35 fps=0.5 q=27.0 size=       1KiB time=00:00:00.56 bitrate=   7.9kbits/s speed=0.00783x elapsed=0:01:12.36    \nframe=   35 fps=0.5 q=27.0 size=       1KiB time=00:00:00.56 bitrate=   7.9kbits/s speed=0.00778x elapsed=0:01:12.87    \nframe=   36 fps=0.5 q=26.0 size=       1KiB time=00:00:00.58 bitrate=   7.7kbits/s speed=0.00795x elapsed=0:01:13.40    \nframe=   37 fps=0.5 q=25.0 size=       1KiB time=00:00:00.60 bitrate=   7.5kbits/s speed=0.00812x elapsed=0:01:13.93    \nframe=   37 fps=0.5 q=25.0 size=       1KiB time=00:00:00.60 bitrate=   7.5kbits/s speed=0.00805x elapsed=0:01:14.57    \nframe=   38 fps=0.5 q=28.0 size=       1KiB time=00:00:00.61 bitrate=   7.3kbits/s speed=0.0082x elapsed=0:01:15.16    \nframe=   38 fps=0.5 q=28.0 size=       1KiB time=00:00:00.61 bitrate=   7.3kbits/s speed=0.00814x elapsed=0:01:15.74    \nframe=   39 fps=0.5 q=25.0 size=       1KiB time=00:00:00.63 bitrate=   7.1kbits/s speed=0.00829x elapsed=0:01:16.38    \nframe=   39 fps=0.5 q=25.0 size=       1KiB time=00:00:00.63 bitrate=   7.1kbits/s speed=0.00822x elapsed=0:01:17.00    \nframe=   39 fps=0.5 q=25.0 size=       1KiB time=00:00:00.63 bitrate=   7.1kbits/s speed=0.00817x elapsed=0:01:17.55    \nframe=   40 fps=0.5 q=27.0 size=       1KiB time=00:00:00.65 bitrate=   6.9kbits/s speed=0.00831x elapsed=0:01:18.20    \nframe=   41 fps=0.5 q=18.0 size=       1KiB time=00:00:00.66 bitrate=   6.7kbits/s speed=0.00847x elapsed=0:01:18.73    \nframe=   42 fps=0.5 q=28.0 size=       1KiB time=00:00:00.68 bitrate=   6.6kbits/s speed=0.00862x elapsed=0:01:19.27    \nframe=   42 fps=0.5 q=28.0 size=       1KiB time=00:00:00.68 bitrate=   6.6kbits/s speed=0.00856x elapsed=0:01:19.81    \nframe=   43 fps=0.5 q=27.0 size=       1KiB time=00:00:00.70 bitrate=   6.4kbits/s speed=0.00871x elapsed=0:01:20.34    \nframe=   44 fps=0.5 q=28.0 size=       1KiB time=00:00:00.71 bitrate=   6.3kbits/s speed=0.00886x elapsed=0:01:20.88    \nframe=   45 fps=0.6 q=24.0 size=       1KiB time=00:00:00.73 bitrate=   6.1kbits/s speed=0.009x elapsed=0:01:21.45    \nframe=   46 fps=0.6 q=28.0 size=       1KiB time=00:00:00.75 bitrate=   6.0kbits/s speed=0.00915x elapsed=0:01:21.99    \nframe=   47 fps=0.6 q=27.0 size=       1KiB time=00:00:00.76 bitrate=   5.8kbits/s speed=0.00929x elapsed=0:01:22.50    \nframe=   47 fps=0.6 q=27.0 size=       1KiB time=00:00:00.76 bitrate=   5.8kbits/s speed=0.00923x elapsed=0:01:23.09    \nframe=   49 fps=0.6 q=10.0 size=       1KiB time=00:00:00.80 bitrate=   5.6kbits/s speed=0.00954x elapsed=0:01:23.83    \nframe=   51 fps=0.6 q=28.0 size=       1KiB time=00:00:00.83 bitrate=   5.4kbits/s speed=0.00988x elapsed=0:01:24.34    \nframe=   51 fps=0.6 q=28.0 size=       1KiB time=00:00:00.83 bitrate=   5.4kbits/s speed=0.00982x elapsed=0:01:24.85    \nframe=   51 fps=0.6 q=28.0 size=       1KiB time=00:00:00.83 bitrate=   5.4kbits/s speed=0.00976x elapsed=0:01:25.37    \nframe=   53 fps=0.6 q=26.0 size=       1KiB time=00:00:00.86 bitrate=   5.2kbits/s speed=0.0101x elapsed=0:01:25.89    \nframe=   54 fps=0.6 q=28.0 size=       1KiB time=00:00:00.88 bitrate=   5.1kbits/s speed=0.0102x elapsed=0:01:26.40    \nframe=   54 fps=0.6 q=28.0 size=       1KiB time=00:00:00.88 bitrate=   5.1kbits/s speed=0.0102x elapsed=0:01:26.91    \nframe=   54 fps=0.6 q=28.0 size=       1KiB time=00:00:00.88 bitrate=   5.1kbits/s speed=0.0101x elapsed=0:01:27.44    \nframe=   55 fps=0.6 q=25.0 size=       1KiB time=00:00:00.90 bitrate=   5.0kbits/s speed=0.0102x elapsed=0:01:27.95    \nframe=   55 fps=0.6 q=25.0 size=       1KiB time=00:00:00.90 bitrate=   5.0kbits/s speed=0.0102x elapsed=0:01:28.47    \nframe=   55 fps=0.6 q=25.0 size=       1KiB time=00:00:00.90 bitrate=   5.0kbits/s speed=0.0101x elapsed=0:01:28.98    \nframe=   56 fps=0.6 q=29.0 size=       1KiB time=00:00:00.91 bitrate=   4.9kbits/s speed=0.0102x elapsed=0:01:29.51    \nframe=   58 fps=0.6 q=30.0 size=       1KiB time=00:00:00.95 bitrate=   4.7kbits/s speed=0.0106x elapsed=0:01:30.01    \nframe=   59 fps=0.7 q=28.0 size=       1KiB time=00:00:00.96 bitrate=   4.6kbits/s speed=0.0107x elapsed=0:01:30.53    \nframe=   60 fps=0.7 q=30.0 size=       1KiB time=00:00:00.98 bitrate=   4.6kbits/s speed=0.0108x elapsed=0:01:31.04    \nframe=   60 fps=0.7 q=30.0 size=       1KiB time=00:00:00.98 bitrate=   4.6kbits/s speed=0.0107x elapsed=0:01:31.55    \nframe=   62 fps=0.7 q=30.0 size=       1KiB time=00:00:01.01 bitrate=   4.4kbits/s speed=0.011x elapsed=0:01:32.08    \nframe=   63 fps=0.7 q=27.0 size=       1KiB time=00:00:01.03 bitrate=   4.3kbits/s speed=0.0112x elapsed=0:01:32.60    \nframe=   66 fps=0.7 q=31.0 size=       1KiB time=00:00:01.08 bitrate=   4.1kbits/s speed=0.0116x elapsed=0:01:33.10    \nframe=   66 fps=0.7 q=31.0 size=       1KiB time=00:00:01.08 bitrate=   4.1kbits/s speed=0.0116x elapsed=0:01:33.63    \nframe=   67 fps=0.7 q=30.0 size=       1KiB time=00:00:01.10 bitrate=   4.1kbits/s speed=0.0117x elapsed=0:01:34.14    \nframe=   67 fps=0.7 q=30.0 size=       1KiB time=00:00:01.10 bitrate=   4.1kbits/s speed=0.0116x elapsed=0:01:34.66    \nframe=   67 fps=0.7 q=30.0 size=       1KiB time=00:00:01.10 bitrate=   4.1kbits/s speed=0.0116x elapsed=0:01:35.17    \nframe=   68 fps=0.7 q=23.0 size=       1KiB time=00:00:01.11 bitrate=   4.0kbits/s speed=0.0117x elapsed=0:01:35.68    \nframe=   69 fps=0.7 q=27.0 size=       1KiB time=00:00:01.13 bitrate=   4.0kbits/s speed=0.0118x elapsed=0:01:36.20    \nframe=   70 fps=0.7 q=32.0 size=       1KiB time=00:00:01.15 bitrate=   3.9kbits/s speed=0.0119x elapsed=0:01:36.72    \nframe=   70 fps=0.7 q=32.0 size=       1KiB time=00:00:01.15 bitrate=   3.9kbits/s speed=0.0118x elapsed=0:01:37.23    \nframe=   70 fps=0.7 q=32.0 size=       1KiB time=00:00:01.15 bitrate=   3.9kbits/s speed=0.0118x elapsed=0:01:37.75    \nframe=   71 fps=0.7 q=26.0 size=       1KiB time=00:00:01.16 bitrate=   3.8kbits/s speed=0.0119x elapsed=0:01:38.26    \nframe=   71 fps=0.7 q=26.0 size=       1KiB time=00:00:01.16 bitrate=   3.8kbits/s speed=0.0118x elapsed=0:01:38.78    \nframe=   72 fps=0.7 q=29.0 size=       1KiB time=00:00:01.18 bitrate=   3.8kbits/s speed=0.0119x elapsed=0:01:39.30    \nframe=   73 fps=0.7 q=21.0 size=       1KiB time=00:00:01.20 bitrate=   3.7kbits/s speed=0.012x elapsed=0:01:39.81    \nframe=   75 fps=0.7 q=29.0 size=       1KiB time=00:00:01.23 bitrate=   3.6kbits/s speed=0.0123x elapsed=0:01:40.33    \nframe=   75 fps=0.7 q=29.0 size=       1KiB time=00:00:01.23 bitrate=   3.6kbits/s speed=0.0122x elapsed=0:01:40.84    \nframe=   76 fps=0.7 q=31.0 size=       1KiB time=00:00:01.25 bitrate=   3.6kbits/s speed=0.0123x elapsed=0:01:41.36    \nframe=   77 fps=0.8 q=25.0 size=       1KiB time=00:00:01.26 bitrate=   3.5kbits/s speed=0.0124x elapsed=0:01:41.88    \nframe=   79 fps=0.8 q=28.0 size=       1KiB time=00:00:01.30 bitrate=   3.4kbits/s speed=0.0127x elapsed=0:01:42.39    \nframe=   79 fps=0.8 q=28.0 size=       1KiB time=00:00:01.30 bitrate=   3.4kbits/s speed=0.0126x elapsed=0:01:42.90    \nframe=   80 fps=0.8 q=30.0 size=       1KiB time=00:00:01.31 bitrate=   3.4kbits/s speed=0.0127x elapsed=0:01:43.41    \nframe=   82 fps=0.8 q=31.0 size=       1KiB time=00:00:01.35 bitrate=   3.3kbits/s speed=0.013x elapsed=0:01:43.93    \nframe=   83 fps=0.8 q=30.0 size=       1KiB time=00:00:01.36 bitrate=   3.3kbits/s speed=0.0131x elapsed=0:01:44.46    \nframe=   83 fps=0.8 q=30.0 size=       1KiB time=00:00:01.36 bitrate=   3.3kbits/s speed=0.013x elapsed=0:01:44.96    \nframe=   83 fps=0.8 q=30.0 size=       1KiB time=00:00:01.36 bitrate=   3.3kbits/s speed=0.013x elapsed=0:01:45.49    \nframe=   84 fps=0.8 q=31.0 size=       1KiB time=00:00:01.38 bitrate=   3.2kbits/s speed=0.013x elapsed=0:01:46.00    \nframe=   84 fps=0.8 q=31.0 size=       1KiB time=00:00:01.38 bitrate=   3.2kbits/s speed=0.013x elapsed=0:01:46.51    \nframe=   85 fps=0.8 q=28.0 size=       1KiB time=00:00:01.40 bitrate=   3.2kbits/s speed=0.0131x elapsed=0:01:47.03    \nframe=   86 fps=0.8 q=28.0 size=       1KiB time=00:00:01.41 bitrate=   3.2kbits/s speed=0.0132x elapsed=0:01:47.54    \nframe=   86 fps=0.8 q=28.0 size=       1KiB time=00:00:01.41 bitrate=   3.2kbits/s speed=0.0131x elapsed=0:01:48.06    \nframe=   86 fps=0.8 q=28.0 size=       1KiB time=00:00:01.41 bitrate=   3.2kbits/s speed=0.013x elapsed=0:01:48.58    \nframe=   87 fps=0.8 q=24.0 size=       1KiB time=00:00:01.43 bitrate=   3.1kbits/s speed=0.0131x elapsed=0:01:49.09    \nframe=   88 fps=0.8 q=28.0 size=       1KiB time=00:00:01.45 bitrate=   3.1kbits/s speed=0.0132x elapsed=0:01:49.60    \nframe=   90 fps=0.8 q=30.0 size=       1KiB time=00:00:01.48 bitrate=   3.0kbits/s speed=0.0135x elapsed=0:01:50.12    \nframe=   91 fps=0.8 q=28.0 size=       1KiB time=00:00:01.50 bitrate=   3.0kbits/s speed=0.0136x elapsed=0:01:50.64    \nframe=   91 fps=0.8 q=28.0 size=       1KiB time=00:00:01.50 bitrate=   3.0kbits/s speed=0.0135x elapsed=0:01:51.15    \nframe=   91 fps=0.8 q=28.0 size=       1KiB time=00:00:01.50 bitrate=   3.0kbits/s speed=0.0134x elapsed=0:01:51.67    \nframe=   92 fps=0.8 q=27.0 size=       1KiB time=00:00:01.51 bitrate=   3.0kbits/s speed=0.0135x elapsed=0:01:52.19    \nframe=   94 fps=0.8 q=30.0 size=       1KiB time=00:00:01.55 bitrate=   2.9kbits/s speed=0.0138x elapsed=0:01:52.69    \nframe=   96 fps=0.8 q=30.0 size=       1KiB time=00:00:01.58 bitrate=   2.8kbits/s speed=0.014x elapsed=0:01:53.22    \nframe=   97 fps=0.9 q=14.0 size=       1KiB time=00:00:01.60 bitrate=   2.8kbits/s speed=0.0141x elapsed=0:01:53.73    \nframe=   99 fps=0.9 q=30.0 size=       1KiB time=00:00:01.63 bitrate=   2.7kbits/s speed=0.0143x elapsed=0:01:54.25    \nframe=   99 fps=0.9 q=30.0 size=       1KiB time=00:00:01.63 bitrate=   2.7kbits/s speed=0.0142x elapsed=0:01:54.77    \nframe=  101 fps=0.9 q=27.0 size=       1KiB time=00:00:01.66 bitrate=   2.7kbits/s speed=0.0145x elapsed=0:01:55.28    \nframe=  102 fps=0.9 q=29.0 size=       1KiB time=00:00:01.68 bitrate=   2.7kbits/s speed=0.0145x elapsed=0:01:55.79    \nframe=  102 fps=0.9 q=29.0 size=       1KiB time=00:00:01.68 bitrate=   2.7kbits/s speed=0.0145x elapsed=0:01:56.31    \nframe=  102 fps=0.9 q=29.0 size=       1KiB time=00:00:01.68 bitrate=   2.7kbits/s speed=0.0144x elapsed=0:01:56.83    \nframe=  103 fps=0.9 q=25.0 size=       1KiB time=00:00:01.70 bitrate=   2.6kbits/s speed=0.0145x elapsed=0:01:57.34    \nframe=  103 fps=0.9 q=25.0 size=       1KiB time=00:00:01.70 bitrate=   2.6kbits/s speed=0.0144x elapsed=0:01:57.85    \nframe=  104 fps=0.9 q=29.0 size=       1KiB time=00:00:01.71 bitrate=   2.6kbits/s speed=0.0145x elapsed=0:01:58.37    \nframe=  105 fps=0.9 q=22.0 size=       1KiB time=00:00:01.73 bitrate=   2.6kbits/s speed=0.0146x elapsed=0:01:58.88    \nframe=  106 fps=0.9 q=30.0 size=       1KiB time=00:00:01.75 bitrate=   2.6kbits/s speed=0.0147x elapsed=0:01:59.41    \nframe=  107 fps=0.9 q=28.0 size=       1KiB time=00:00:01.76 bitrate=   2.5kbits/s speed=0.0147x elapsed=0:01:59.92    \nframe=  107 fps=0.9 q=28.0 size=       1KiB time=00:00:01.76 bitrate=   2.5kbits/s speed=0.0147x elapsed=0:02:00.44    \nframe=  108 fps=0.9 q=27.0 size=       1KiB time=00:00:01.78 bitrate=   2.5kbits/s speed=0.0147x elapsed=0:02:00.95    \nframe=  109 fps=0.9 q=24.0 size=       1KiB time=00:00:01.80 bitrate=   2.5kbits/s speed=0.0148x elapsed=0:02:01.46    \nframe=  111 fps=0.9 q=27.0 size=       1KiB time=00:00:01.83 bitrate=   2.4kbits/s speed=0.015x elapsed=0:02:01.98    \nframe=  111 fps=0.9 q=27.0 size=       1KiB time=00:00:01.83 bitrate=   2.4kbits/s speed=0.015x elapsed=0:02:02.50    \nframe=  113 fps=0.9 q=11.0 size=       1KiB time=00:00:01.86 bitrate=   2.4kbits/s speed=0.0152x elapsed=0:02:03.03    \nframe=  114 fps=0.9 q=30.0 size=       1KiB time=00:00:01.88 bitrate=   2.4kbits/s speed=0.0152x elapsed=0:02:03.56    \nframe=  115 fps=0.9 q=29.0 size=       1KiB time=00:00:01.90 bitrate=   2.4kbits/s speed=0.0153x elapsed=0:02:04.08    \nframe=  115 fps=0.9 q=29.0 size=       1KiB time=00:00:01.90 bitrate=   2.4kbits/s speed=0.0152x elapsed=0:02:04.61    \nframe=  116 fps=0.9 q=30.0 size=       1KiB time=00:00:01.91 bitrate=   2.3kbits/s speed=0.0153x elapsed=0:02:05.14    \nframe=  116 fps=0.9 q=30.0 size=       1KiB time=00:00:01.91 bitrate=   2.3kbits/s speed=0.0153x elapsed=0:02:05.65    \nframe=  117 fps=0.9 q=27.0 size=       1KiB time=00:00:01.93 bitrate=   2.3kbits/s speed=0.0153x elapsed=0:02:06.17    \nframe=  118 fps=0.9 q=28.0 size=       1KiB time=00:00:01.95 bitrate=   2.3kbits/s speed=0.0154x elapsed=0:02:06.70    \nframe=  118 fps=0.9 q=28.0 size=       1KiB time=00:00:01.95 bitrate=   2.3kbits/s speed=0.0153x elapsed=0:02:07.22    \nframe=  118 fps=0.9 q=28.0 size=       1KiB time=00:00:01.95 bitrate=   2.3kbits/s speed=0.0153x elapsed=0:02:07.73    \nframe=  119 fps=0.9 q=25.0 size=       1KiB time=00:00:01.96 bitrate=   2.3kbits/s speed=0.0153x elapsed=0:02:08.25    \nframe=  119 fps=0.9 q=25.0 size=       1KiB time=00:00:01.96 bitrate=   2.3kbits/s speed=0.0153x elapsed=0:02:08.76    \nframe=  119 fps=0.9 q=25.0 size=       1KiB time=00:00:01.96 bitrate=   2.3kbits/s speed=0.0152x elapsed=0:02:09.28    \nframe=  121 fps=0.9 q=23.0 size=       1KiB time=00:00:02.00 bitrate=   2.2kbits/s speed=0.0154x elapsed=0:02:09.79    \nframe=  122 fps=0.9 q=30.0 size=       1KiB time=00:00:02.01 bitrate=   2.2kbits/s speed=0.0155x elapsed=0:02:10.31    \nframe=  123 fps=0.9 q=28.0 size=       1KiB time=00:00:02.03 bitrate=   2.2kbits/s speed=0.0155x elapsed=0:02:10.83    \nframe=  123 fps=0.9 q=28.0 size=       1KiB time=00:00:02.03 bitrate=   2.2kbits/s speed=0.0155x elapsed=0:02:11.36    \nframe=  124 fps=0.9 q=26.0 size=       1KiB time=00:00:02.05 bitrate=   2.2kbits/s speed=0.0155x elapsed=0:02:11.88    \nframe=  124 fps=0.9 q=26.0 size=       1KiB time=00:00:02.05 bitrate=   2.2kbits/s speed=0.0155x elapsed=0:02:12.40    \nframe=  125 fps=0.9 q=24.0 size=       1KiB time=00:00:02.06 bitrate=   2.2kbits/s speed=0.0155x elapsed=0:02:12.93    \nframe=  126 fps=0.9 q=29.0 size=       1KiB time=00:00:02.08 bitrate=   2.2kbits/s speed=0.0156x elapsed=0:02:13.45    \nframe=  128 fps=1.0 q=29.0 size=       1KiB time=00:00:02.11 bitrate=   2.1kbits/s speed=0.0158x elapsed=0:02:13.97    \nframe=  128 fps=1.0 q=29.0 size=       1KiB time=00:00:02.11 bitrate=   2.1kbits/s speed=0.0157x elapsed=0:02:14.49    \nframe=  129 fps=1.0 q=13.0 size=       1KiB time=00:00:02.13 bitrate=   2.1kbits/s speed=0.0158x elapsed=0:02:15.01    \nframe=  130 fps=1.0 q=30.0 size=       1KiB time=00:00:02.15 bitrate=   2.1kbits/s speed=0.0159x elapsed=0:02:15.54    \nframe=  131 fps=1.0 q=29.0 size=       1KiB time=00:00:02.16 bitrate=   2.1kbits/s speed=0.0159x elapsed=0:02:16.07    \nframe=  131 fps=1.0 q=29.0 size=       1KiB time=00:00:02.16 bitrate=   2.1kbits/s speed=0.0159x elapsed=0:02:16.59    \nframe=  132 fps=1.0 q=30.0 size=       1KiB time=00:00:02.18 bitrate=   2.1kbits/s speed=0.0159x elapsed=0:02:17.10    \nframe=  132 fps=1.0 q=30.0 size=       1KiB time=00:00:02.18 bitrate=   2.1kbits/s speed=0.0159x elapsed=0:02:17.62    \nframe=  134 fps=1.0 q=28.0 size=       1KiB time=00:00:02.21 bitrate=   2.0kbits/s speed=0.016x elapsed=0:02:18.14    \nframe=  134 fps=1.0 q=28.0 size=       1KiB time=00:00:02.21 bitrate=   2.0kbits/s speed=0.016x elapsed=0:02:18.66    \nframe=  134 fps=1.0 q=28.0 size=       1KiB time=00:00:02.21 bitrate=   2.0kbits/s speed=0.0159x elapsed=0:02:19.19    \nframe=  135 fps=1.0 q=25.0 size=       1KiB time=00:00:02.23 bitrate=   2.0kbits/s speed=0.016x elapsed=0:02:19.70    \nframe=  135 fps=1.0 q=25.0 size=       1KiB time=00:00:02.23 bitrate=   2.0kbits/s speed=0.0159x elapsed=0:02:20.23    \nframe=  138 fps=1.0 q=30.0 size=       1KiB time=00:00:02.28 bitrate=   2.0kbits/s speed=0.0162x elapsed=0:02:20.74    \nframe=  138 fps=1.0 q=30.0 size=       1KiB time=00:00:02.28 bitrate=   2.0kbits/s speed=0.0162x elapsed=0:02:21.26    \nframe=  139 fps=1.0 q=28.0 size=       1KiB time=00:00:02.30 bitrate=   1.9kbits/s speed=0.0162x elapsed=0:02:21.78    \nframe=  139 fps=1.0 q=28.0 size=       1KiB time=00:00:02.30 bitrate=   1.9kbits/s speed=0.0162x elapsed=0:02:22.30    \nframe=  140 fps=1.0 q=26.0 size=       1KiB time=00:00:02.31 bitrate=   1.9kbits/s speed=0.0162x elapsed=0:02:22.83    \nframe=  141 fps=1.0 q=24.0 size=       1KiB time=00:00:02.33 bitrate=   1.9kbits/s speed=0.0163x elapsed=0:02:23.36    \nframe=  141 fps=1.0 q=24.0 size=       1KiB time=00:00:02.33 bitrate=   1.9kbits/s speed=0.0162x elapsed=0:02:23.89    \nframe=  143 fps=1.0 q=26.0 size=       1KiB time=00:00:02.36 bitrate=   1.9kbits/s speed=0.0164x elapsed=0:02:24.42    \nframe=  143 fps=1.0 q=26.0 size=       1KiB time=00:00:02.36 bitrate=   1.9kbits/s speed=0.0163x elapsed=0:02:24.95    \nframe=  144 fps=1.0 q=29.0 size=       1KiB time=00:00:02.38 bitrate=   1.9kbits/s speed=0.0164x elapsed=0:02:25.49    \nframe=  145 fps=1.0 q=11.0 size=       1KiB time=00:00:02.40 bitrate=   1.9kbits/s speed=0.0164x elapsed=0:02:25.99    \nframe=  146 fps=1.0 q=30.0 size=       1KiB time=00:00:02.41 bitrate=   1.9kbits/s speed=0.0165x elapsed=0:02:26.51    \nframe=  147 fps=1.0 q=29.0 size=       1KiB time=00:00:02.43 bitrate=   1.8kbits/s speed=0.0165x elapsed=0:02:27.02    \nframe=  147 fps=1.0 q=29.0 size=       1KiB time=00:00:02.43 bitrate=   1.8kbits/s speed=0.0165x elapsed=0:02:27.55    \nframe=  149 fps=1.0 q=26.0 size=       1KiB time=00:00:02.46 bitrate=   1.8kbits/s speed=0.0167x elapsed=0:02:28.09    \nframe=  150 fps=1.0 q=28.0 size=       1KiB time=00:00:02.48 bitrate=   1.8kbits/s speed=0.0167x elapsed=0:02:28.64    \nframe=  151 fps=1.0 q=24.0 size=       1KiB time=00:00:02.50 bitrate=   1.8kbits/s speed=0.0168x elapsed=0:02:29.20    \nframe=  151 fps=1.0 q=24.0 size=       1KiB time=00:00:02.50 bitrate=   1.8kbits/s speed=0.0167x elapsed=0:02:29.73    \nframe=  153 fps=1.0 q=21.0 size=       1KiB time=00:00:02.53 bitrate=   1.8kbits/s speed=0.0169x elapsed=0:02:30.29    \nframe=  155 fps=1.0 q=28.0 size=       1KiB time=00:00:02.55 bitrate=   1.8kbits/s speed=0.0169x elapsed=0:02:30.92    \nframe=  155 fps=1.0 q=28.0 size=       1KiB time=00:00:02.56 bitrate=   1.7kbits/s speed=0.0169x elapsed=0:02:31.60    \nframe=  156 fps=1.0 q=26.0 size=       1KiB time=00:00:02.58 bitrate=   1.7kbits/s speed=0.017x elapsed=0:02:32.15    \nframe=  157 fps=1.0 q=24.0 size=       1KiB time=00:00:02.60 bitrate=   1.7kbits/s speed=0.017x elapsed=0:02:32.67    \nframe=  158 fps=1.0 q=29.0 size=       1KiB time=00:00:02.61 bitrate=   1.7kbits/s speed=0.0171x elapsed=0:02:33.21    \nframe=  160 fps=1.0 q=29.0 size=       1KiB time=00:00:02.65 bitrate=   1.7kbits/s speed=0.0172x elapsed=0:02:33.73    \nframe=  161 fps=1.0 q=11.0 size=       1KiB time=00:00:02.66 bitrate=   1.7kbits/s speed=0.0173x elapsed=0:02:34.25    \nframe=  163 fps=1.1 q=29.0 size=       1KiB time=00:00:02.70 bitrate=   1.7kbits/s speed=0.0174x elapsed=0:02:34.76    \nframe=  163 fps=1.0 q=29.0 size=       1KiB time=00:00:02.70 bitrate=   1.7kbits/s speed=0.0174x elapsed=0:02:35.30    \nframe=  165 fps=1.1 q=26.0 size=       1KiB time=00:00:02.73 bitrate=   1.6kbits/s speed=0.0175x elapsed=0:02:35.85    \nframe=  166 fps=1.1 q=28.0 size=       1KiB time=00:00:02.75 bitrate=   1.6kbits/s speed=0.0176x elapsed=0:02:36.39    \nframe=  166 fps=1.1 q=28.0 size=       1KiB time=00:00:02.75 bitrate=   1.6kbits/s speed=0.0175x elapsed=0:02:36.92    \nframe=  167 fps=1.1 q=24.0 size=       1KiB time=00:00:02.76 bitrate=   1.6kbits/s speed=0.0176x elapsed=0:02:37.51    \nframe=  170 fps=1.1 q=30.0 size=       1KiB time=00:00:02.81 bitrate=   1.6kbits/s speed=0.0178x elapsed=0:02:38.17    \nframe=  171 fps=1.1 q=28.0 size=       1KiB time=00:00:02.83 bitrate=   1.6kbits/s speed=0.0179x elapsed=0:02:38.72    \nframe=  172 fps=1.1 q=26.0 size=       1KiB time=00:00:02.85 bitrate=   1.6kbits/s speed=0.0179x elapsed=0:02:39.25    \nframe=  175 fps=1.1 q=26.0 size=       1KiB time=00:00:02.88 bitrate=   1.6kbits/s speed=0.018x elapsed=0:02:39.78    \nframe=  176 fps=1.1 q=29.0 size=       1KiB time=00:00:02.91 bitrate=   1.5kbits/s speed=0.0182x elapsed=0:02:40.32    \nframe=  178 fps=1.1 q=30.0 size=       1KiB time=00:00:02.95 bitrate=   1.5kbits/s speed=0.0183x elapsed=0:02:40.84    \nframe=  179 fps=1.1 q=29.0 size=       1KiB time=00:00:02.96 bitrate=   1.5kbits/s speed=0.0184x elapsed=0:02:41.35    \nframe=  179 fps=1.1 q=29.0 size=       1KiB time=00:00:02.96 bitrate=   1.5kbits/s speed=0.0183x elapsed=0:02:41.88    \nframe=  181 fps=1.1 q=26.0 size=       1KiB time=00:00:03.00 bitrate=   1.5kbits/s speed=0.0185x elapsed=0:02:42.41    \nframe=  182 fps=1.1 q=29.0 size=       1KiB time=00:00:03.01 bitrate=   1.5kbits/s speed=0.0185x elapsed=0:02:42.92    \nframe=  182 fps=1.1 q=29.0 size=       1KiB time=00:00:03.01 bitrate=   1.5kbits/s speed=0.0185x elapsed=0:02:43.45    \nframe=  183 fps=1.1 q=24.0 size=       1KiB time=00:00:03.03 bitrate=   1.5kbits/s speed=0.0185x elapsed=0:02:43.97    \nframe=  183 fps=1.1 q=24.0 size=       1KiB time=00:00:03.03 bitrate=   1.5kbits/s speed=0.0184x elapsed=0:02:44.48    \nframe=  184 fps=1.1 q=28.0 size=       1KiB time=00:00:03.05 bitrate=   1.5kbits/s speed=0.0185x elapsed=0:02:45.03    \nframe=  186 fps=1.1 q=30.0 size=       1KiB time=00:00:03.08 bitrate=   1.5kbits/s speed=0.0186x elapsed=0:02:45.56    \nframe=  186 fps=1.1 q=30.0 size=       1KiB time=00:00:03.08 bitrate=   1.5kbits/s speed=0.0186x elapsed=0:02:46.08    \nframe=  187 fps=1.1 q=28.0 size=       1KiB time=00:00:03.10 bitrate=   1.4kbits/s speed=0.0186x elapsed=0:02:46.62    \nframe=  188 fps=1.1 q=26.0 size=       1KiB time=00:00:03.11 bitrate=   1.4kbits/s speed=0.0186x elapsed=0:02:47.14    \nframe=  191 fps=1.1 q=26.0 size=       1KiB time=00:00:03.16 bitrate=   1.4kbits/s speed=0.0189x elapsed=0:02:47.66    \nframe=  193 fps=1.1 q=10.0 size=       1KiB time=00:00:03.20 bitrate=   1.4kbits/s speed=0.019x elapsed=0:02:48.20    \nframe=  195 fps=1.2 q=29.0 size=       1KiB time=00:00:03.23 bitrate=   1.4kbits/s speed=0.0192x elapsed=0:02:48.73    \nframe=  196 fps=1.2 q=30.0 size=       1KiB time=00:00:03.25 bitrate=   1.4kbits/s speed=0.0192x elapsed=0:02:49.27    \nframe=  198 fps=1.2 q=26.0 size=       1KiB time=00:00:03.26 bitrate=   1.4kbits/s speed=0.0192x elapsed=0:02:49.79    \nframe=  198 fps=1.2 q=26.0 size=       1KiB time=00:00:03.28 bitrate=   1.4kbits/s speed=0.0192x elapsed=0:02:50.63    \nframe=  199 fps=1.2 q=21.0 size=       1KiB time=00:00:03.30 bitrate=   1.4kbits/s speed=0.0193x elapsed=0:02:51.27    \nframe=  200 fps=1.2 q=26.0 size=       1KiB time=00:00:03.30 bitrate=   1.4kbits/s speed=0.0192x elapsed=0:02:52.03    \nframe=  203 fps=1.2 q=28.0 size=       1KiB time=00:00:03.35 bitrate=   1.3kbits/s speed=0.0194x elapsed=0:02:52.86    \nframe=  204 fps=1.2 q=27.0 size=       1KiB time=00:00:03.36 bitrate=   1.3kbits/s speed=0.0194x elapsed=0:02:53.61    \nframe=  207 fps=1.2 q=27.0 size=       1KiB time=00:00:03.40 bitrate=   1.3kbits/s speed=0.0195x elapsed=0:02:54.36    \nframe=  210 fps=1.2 q=31.0 size=       1KiB time=00:00:03.46 bitrate=   1.3kbits/s speed=0.0198x elapsed=0:02:55.11    \nframe=  211 fps=1.2 q=30.0 size=       1KiB time=00:00:03.50 bitrate=   1.3kbits/s speed=0.0199x elapsed=0:02:55.88    \nframe=  213 fps=1.2 q=27.0 size=    5120KiB time=00:00:03.51 bitrate=11926.9kbits/s speed=0.0199x elapsed=0:02:56.81    \nframe=  214 fps=1.2 q=28.0 size=    5120KiB time=00:00:03.55 bitrate=11814.9kbits/s speed=0.02x elapsed=0:02:57.75    \nframe=  214 fps=1.2 q=28.0 size=    5120KiB time=00:00:03.55 bitrate=11814.9kbits/s speed=0.0199x elapsed=0:02:58.73    \nframe=  215 fps=1.2 q=23.0 size=    5120KiB time=00:00:03.56 bitrate=11759.7kbits/s speed=0.0199x elapsed=0:02:59.62    \nframe=  219 fps=1.2 q=28.0 size=    5120KiB time=00:00:03.63 bitrate=11544.0kbits/s speed=0.0201x elapsed=0:03:00.55    \nframe=  221 fps=1.2 q=24.0 size=    5120KiB time=00:00:03.65 bitrate=11491.2kbits/s speed=0.0201x elapsed=0:03:01.59    \nframe=  225 fps=1.2 q=10.0 size=    5120KiB time=00:00:03.70 bitrate=11336.0kbits/s speed=0.0203x elapsed=0:03:02.27    \nframe=  226 fps=1.2 q=31.0 size=    5120KiB time=00:00:03.75 bitrate=11184.8kbits/s speed=0.0205x elapsed=0:03:02.98    \nframe=  227 fps=1.2 q=30.0 size=    5120KiB time=00:00:03.76 bitrate=11135.3kbits/s speed=0.0205x elapsed=0:03:03.63    \nframe=  229 fps=1.2 q=27.0 size=    5120KiB time=00:00:03.80 bitrate=11037.6kbits/s speed=0.0206x elapsed=0:03:04.50    \nframe=  230 fps=1.2 q=28.0 size=    5120KiB time=00:00:03.81 bitrate=10989.4kbits/s speed=0.0206x elapsed=0:03:05.24    \nframe=  231 fps=1.2 q=23.0 size=    5120KiB time=00:00:03.83 bitrate=10941.7kbits/s speed=0.0206x elapsed=0:03:06.19    \nframe=  234 fps=1.3 q=30.0 size=    5120KiB time=00:00:03.86 bitrate=10847.3kbits/s speed=0.0207x elapsed=0:03:06.85    \nframe=  235 fps=1.3 q=28.0 size=    5120KiB time=00:00:03.90 bitrate=10754.6kbits/s speed=0.0208x elapsed=0:03:07.76    \nframe=  237 fps=1.3 q=24.0 size=    5120KiB time=00:00:03.91 bitrate=10708.9kbits/s speed=0.0208x elapsed=0:03:08.60    \nframe=  241 fps=1.3 q=11.0 size=    5120KiB time=00:00:03.96 bitrate=10573.9kbits/s speed=0.0209x elapsed=0:03:09.53    \nframe=  243 fps=1.3 q=30.0 size=    5120KiB time=00:00:04.01 bitrate=10442.2kbits/s speed=0.0211x elapsed=0:03:10.17    \nframe=  243 fps=1.3 q=30.0 size=    5120KiB time=00:00:04.03 bitrate=10399.1kbits/s speed=0.0211x elapsed=0:03:11.02    \nframe=  245 fps=1.3 q=27.0 size=    5120KiB time=00:00:04.06 bitrate=10313.9kbits/s speed=0.0212x elapsed=0:03:11.84    \nframe=  246 fps=1.3 q=27.0 size=    5120KiB time=00:00:04.08 bitrate=10271.8kbits/s speed=0.0212x elapsed=0:03:12.48    \nframe=  247 fps=1.3 q=22.0 size=    5120KiB time=00:00:04.08 bitrate=10271.8kbits/s speed=0.0211x elapsed=0:03:13.25    \nframe=  248 fps=1.3 q=27.0 size=    5120KiB time=00:00:04.11 bitrate=10188.6kbits/s speed=0.0212x elapsed=0:03:13.98    \nframe=  250 fps=1.3 q=31.0 size=    5120KiB time=00:00:04.13 bitrate=10147.5kbits/s speed=0.0212x elapsed=0:03:14.69    \nframe=  251 fps=1.3 q=28.0 size=    5120KiB time=00:00:04.16 bitrate=10066.3kbits/s speed=0.0213x elapsed=0:03:15.41    \nframe=  252 fps=1.3 q=31.0 size=    5120KiB time=00:00:04.18 bitrate=10026.2kbits/s speed=0.0213x elapsed=0:03:15.97    \nframe=  253 fps=1.3 q=24.0 size=    5120KiB time=00:00:04.20 bitrate=9986.4kbits/s speed=0.0214x elapsed=0:03:16.60    \nframe=  256 fps=1.3 q=31.0 size=    5120KiB time=00:00:04.25 bitrate=9869.0kbits/s speed=0.0216x elapsed=0:03:17.11    \nframe=  257 fps=1.3 q=12.0 size=    5120KiB time=00:00:04.26 bitrate=9830.4kbits/s speed=0.0216x elapsed=0:03:17.62    \nframe=  258 fps=1.3 q=32.0 size=    5120KiB time=00:00:04.28 bitrate=9792.2kbits/s speed=0.0216x elapsed=0:03:18.14    \nframe=  259 fps=1.3 q=31.0 size=    5120KiB time=00:00:04.30 bitrate=9754.2kbits/s speed=0.0216x elapsed=0:03:18.65    \nframe=  261 fps=1.3 q=28.0 size=    5120KiB time=00:00:04.33 bitrate=9679.2kbits/s speed=0.0218x elapsed=0:03:19.17    \nframe=  262 fps=1.3 q=32.0 size=    5120KiB time=00:00:04.35 bitrate=9642.1kbits/s speed=0.0218x elapsed=0:03:19.68    \nframe=  262 fps=1.3 q=32.0 size=    5120KiB time=00:00:04.35 bitrate=9642.1kbits/s speed=0.0217x elapsed=0:03:20.20    \nframe=  263 fps=1.3 q=31.0 size=    5120KiB time=00:00:04.36 bitrate=9605.3kbits/s speed=0.0218x elapsed=0:03:20.71    \nframe=  265 fps=1.3 q=22.0 size=    5120KiB time=00:00:04.40 bitrate=9532.5kbits/s speed=0.0219x elapsed=0:03:21.23    \nframe=  267 fps=1.3 q=29.0 size=    5120KiB time=00:00:04.43 bitrate=9460.8kbits/s speed=0.022x elapsed=0:03:21.74    \nframe=  268 fps=1.3 q=31.0 size=    5120KiB time=00:00:04.45 bitrate=9425.4kbits/s speed=0.022x elapsed=0:03:22.26    \nframe=  269 fps=1.3 q=25.0 size=    5120KiB time=00:00:04.46 bitrate=9390.2kbits/s speed=0.022x elapsed=0:03:22.78    \nframe=  271 fps=1.3 q=28.0 size=    5120KiB time=00:00:04.50 bitrate=9320.7kbits/s speed=0.0221x elapsed=0:03:23.29    \nframe=  273 fps=1.3 q=11.0 size=    5120KiB time=00:00:04.53 bitrate=9252.1kbits/s speed=0.0222x elapsed=0:03:23.81    \nframe=  275 fps=1.3 q=30.0 size=    5120KiB time=00:00:04.56 bitrate=9184.6kbits/s speed=0.0223x elapsed=0:03:24.32    \nframe=  275 fps=1.3 q=30.0 size=    5120KiB time=00:00:04.56 bitrate=9184.6kbits/s speed=0.0223x elapsed=0:03:24.85    \nframe=  276 fps=1.3 q=31.0 size=    5120KiB time=00:00:04.58 bitrate=9151.2kbits/s speed=0.0223x elapsed=0:03:25.36    \nframe=  278 fps=1.4 q=27.0 size=    5120KiB time=00:00:04.61 bitrate=9085.1kbits/s speed=0.0224x elapsed=0:03:25.87    \nframe=  278 fps=1.3 q=27.0 size=    5120KiB time=00:00:04.61 bitrate=9085.1kbits/s speed=0.0224x elapsed=0:03:26.40    \nframe=  279 fps=1.3 q=22.0 size=    5120KiB time=00:00:04.63 bitrate=9052.5kbits/s speed=0.0224x elapsed=0:03:26.90    \nframe=  279 fps=1.3 q=22.0 size=    5120KiB time=00:00:04.63 bitrate=9052.5kbits/s speed=0.0223x elapsed=0:03:27.42    \nframe=  281 fps=1.4 q=23.0 size=    5120KiB time=00:00:04.66 bitrate=8987.8kbits/s speed=0.0224x elapsed=0:03:27.93    \nframe=  282 fps=1.4 q=30.0 size=    5120KiB time=00:00:04.68 bitrate=8955.8kbits/s speed=0.0225x elapsed=0:03:28.46    \nframe=  283 fps=1.4 q=28.0 size=    5120KiB time=00:00:04.70 bitrate=8924.1kbits/s speed=0.0225x elapsed=0:03:28.96    \nframe=  284 fps=1.4 q=30.0 size=    5120KiB time=00:00:04.71 bitrate=8892.5kbits/s speed=0.0225x elapsed=0:03:29.48    \nframe=  285 fps=1.4 q=24.0 size=    5120KiB time=00:00:04.73 bitrate=8861.2kbits/s speed=0.0225x elapsed=0:03:29.99    \nframe=  287 fps=1.4 q=27.0 size=    5120KiB time=00:00:04.76 bitrate=8799.2kbits/s speed=0.0226x elapsed=0:03:30.51    \nframe=  289 fps=1.4 q=12.0 size=    5120KiB time=00:00:04.80 bitrate=8738.1kbits/s speed=0.0227x elapsed=0:03:31.04    \nframe=  290 fps=1.4 q=34.0 size=    5120KiB time=00:00:04.81 bitrate=8707.9kbits/s speed=0.0228x elapsed=0:03:31.55    \nframe=  292 fps=1.4 q=34.0 size=    5120KiB time=00:00:04.85 bitrate=8648.0kbits/s speed=0.0229x elapsed=0:03:32.06    \nframe=  293 fps=1.4 q=29.0 size=    5120KiB time=00:00:04.86 bitrate=8618.4kbits/s speed=0.0229x elapsed=0:03:32.58    \nframe=  293 fps=1.4 q=29.0 size=    5120KiB time=00:00:04.86 bitrate=8618.4kbits/s speed=0.0228x elapsed=0:03:33.09    \nframe=  294 fps=1.4 q=34.0 size=    5120KiB time=00:00:04.88 bitrate=8589.0kbits/s speed=0.0229x elapsed=0:03:33.60    \nframe=  297 fps=1.4 q=22.0 size=    5120KiB time=00:00:04.93 bitrate=8502.0kbits/s speed=0.023x elapsed=0:03:34.12    \nframe=  298 fps=1.4 q=33.0 size=    5120KiB time=00:00:04.95 bitrate=8473.3kbits/s speed=0.0231x elapsed=0:03:34.63    \nframe=  299 fps=1.4 q=31.0 size=    5120KiB time=00:00:04.96 bitrate=8444.9kbits/s speed=0.0231x elapsed=0:03:35.15    \nframe=  299 fps=1.4 q=31.0 size=    5120KiB time=00:00:04.96 bitrate=8444.9kbits/s speed=0.023x elapsed=0:03:35.67    \nframe=  300 fps=1.4 q=31.0 size=    5120KiB time=00:00:04.98 bitrate=8416.7kbits/s speed=0.0231x elapsed=0:03:36.18    \nframe=  302 fps=1.4 q=33.0 size=    5120KiB time=00:00:05.01 bitrate=8360.7kbits/s speed=0.0231x elapsed=0:03:36.70    \nframe=  303 fps=1.4 q=31.0 size=    5120KiB time=00:00:05.03 bitrate=8333.1kbits/s speed=0.0232x elapsed=0:03:37.22    \nframe=  304 fps=1.4 q=33.0 size=    5120KiB time=00:00:05.05 bitrate=8305.6kbits/s speed=0.0232x elapsed=0:03:37.74    \nframe=  305 fps=1.4 q=12.0 size=    5120KiB time=00:00:05.06 bitrate=8278.2kbits/s speed=0.0232x elapsed=0:03:38.27    \nframe=  306 fps=1.4 q=34.0 size=    5120KiB time=00:00:05.08 bitrate=8251.1kbits/s speed=0.0232x elapsed=0:03:38.77    \nframe=  307 fps=1.4 q=33.0 size=    5120KiB time=00:00:05.10 bitrate=8224.1kbits/s speed=0.0233x elapsed=0:03:39.29    \nframe=  308 fps=1.4 q=34.0 size=    5120KiB time=00:00:05.11 bitrate=8197.3kbits/s speed=0.0233x elapsed=0:03:39.82    \nframe=  308 fps=1.4 q=34.0 size=    5120KiB time=00:00:05.11 bitrate=8197.3kbits/s speed=0.0232x elapsed=0:03:40.32    \nframe=  309 fps=1.4 q=31.0 size=    5120KiB time=00:00:05.13 bitrate=8170.7kbits/s speed=0.0232x elapsed=0:03:40.84    \nframe=  311 fps=1.4 q=33.0 size=    5120KiB time=00:00:05.16 bitrate=8118.0kbits/s speed=0.0233x elapsed=0:03:41.36    \nframe=  313 fps=1.4 q=27.0 size=    5120KiB time=00:00:05.20 bitrate=8066.0kbits/s speed=0.0234x elapsed=0:03:41.88    \nframe=  313 fps=1.4 q=27.0 size=    5120KiB time=00:00:05.20 bitrate=8066.0kbits/s speed=0.0234x elapsed=0:03:42.40    \nframe=  313 fps=1.4 q=27.0 size=    5120KiB time=00:00:05.20 bitrate=8066.0kbits/s speed=0.0233x elapsed=0:03:42.91    \nframe=  314 fps=1.4 q=33.0 size=    5120KiB time=00:00:05.21 bitrate=8040.2kbits/s speed=0.0233x elapsed=0:03:43.42    \nframe=  315 fps=1.4 q=32.0 size=    5120KiB time=00:00:05.23 bitrate=8014.6kbits/s speed=0.0234x elapsed=0:03:43.93    \nframe=  317 fps=1.4 q=30.0 size=    5120KiB time=00:00:05.26 bitrate=7963.9kbits/s speed=0.0235x elapsed=0:03:44.45    \nframe=  317 fps=1.4 q=30.0 size=    5120KiB time=00:00:05.26 bitrate=7963.9kbits/s speed=0.0234x elapsed=0:03:44.96    \nframe=  318 fps=1.4 q=27.0 size=    5120KiB time=00:00:05.28 bitrate=7938.7kbits/s speed=0.0234x elapsed=0:03:45.48    \nframe=  318 fps=1.4 q=27.0 size=    5120KiB time=00:00:05.28 bitrate=7938.7kbits/s speed=0.0234x elapsed=0:03:45.99    \nframe=  319 fps=1.4 q=21.0 size=    5120KiB time=00:00:05.30 bitrate=7913.8kbits/s speed=0.0234x elapsed=0:03:46.52    \nframe=  321 fps=1.4 q=19.0 size=    5120KiB time=00:00:05.33 bitrate=7864.3kbits/s speed=0.0235x elapsed=0:03:47.03    \nframe=  322 fps=1.4 q=8.0 size=    5120KiB time=00:00:05.35 bitrate=7839.8kbits/s speed=0.0235x elapsed=0:03:47.54    \nframe=  323 fps=1.4 q=34.0 size=    6656KiB time=00:00:05.36 bitrate=10160.1kbits/s speed=0.0235x elapsed=0:03:48.06    \nframe=  324 fps=1.4 q=32.0 size=    6656KiB time=00:00:05.38 bitrate=10128.7kbits/s speed=0.0236x elapsed=0:03:48.57    \nframe=  325 fps=1.4 q=34.0 size=    6656KiB time=00:00:05.40 bitrate=10097.4kbits/s speed=0.0236x elapsed=0:03:49.09    \nframe=  326 fps=1.4 q=29.0 size=    6656KiB time=00:00:05.41 bitrate=10066.3kbits/s speed=0.0236x elapsed=0:03:49.61    \nframe=  327 fps=1.4 q=34.0 size=    6656KiB time=00:00:05.43 bitrate=10035.5kbits/s speed=0.0236x elapsed=0:03:50.12    \nframe=  329 fps=1.4 q=34.0 size=    6656KiB time=00:00:05.46 bitrate=9974.3kbits/s speed=0.0237x elapsed=0:03:50.64    \nframe=  331 fps=1.4 q=34.0 size=    6656KiB time=00:00:05.50 bitrate=9913.8kbits/s speed=0.0238x elapsed=0:03:51.16    \nframe=  332 fps=1.4 q=32.0 size=    6656KiB time=00:00:05.51 bitrate=9883.9kbits/s speed=0.0238x elapsed=0:03:51.67    \nframe=  335 fps=1.4 q=33.0 size=    6656KiB time=00:00:05.56 bitrate=9795.1kbits/s speed=0.024x elapsed=0:03:52.19    \nframe=  337 fps=1.4 q=33.0 size=    6656KiB time=00:00:05.60 bitrate=9736.8kbits/s speed=0.0241x elapsed=0:03:52.70    \nframe=  339 fps=1.5 q=34.0 size=    6656KiB time=00:00:05.63 bitrate=9679.2kbits/s speed=0.0242x elapsed=0:03:53.22    \nframe=  342 fps=1.5 q=30.0 size=    6656KiB time=00:00:05.68 bitrate=9594.0kbits/s speed=0.0243x elapsed=0:03:53.73    \nframe=  343 fps=1.5 q=34.0 size=    6656KiB time=00:00:05.70 bitrate=9566.0kbits/s speed=0.0243x elapsed=0:03:54.24    \nframe=  345 fps=1.5 q=34.0 size=    6656KiB time=00:00:05.73 bitrate=9510.3kbits/s speed=0.0244x elapsed=0:03:54.77    \nframe=  348 fps=1.5 q=33.0 size=    6656KiB time=00:00:05.78 bitrate=9428.1kbits/s speed=0.0246x elapsed=0:03:55.29    \nframe=  350 fps=1.5 q=30.0 size=    6656KiB time=00:00:05.81 bitrate=9374.1kbits/s speed=0.0247x elapsed=0:03:55.80    \nframe=  351 fps=1.5 q=33.0 size=    6656KiB time=00:00:05.83 bitrate=9347.3kbits/s speed=0.0247x elapsed=0:03:56.30    \nframe=  352 fps=1.5 q=30.0 size=    6656KiB time=00:00:05.85 bitrate=9320.7kbits/s speed=0.0247x elapsed=0:03:56.83    \nframe=  355 fps=1.5 q=34.0 size=    6656KiB time=00:00:05.90 bitrate=9241.7kbits/s speed=0.0249x elapsed=0:03:57.34    \nframe=  356 fps=1.5 q=33.0 size=    6656KiB time=00:00:05.91 bitrate=9215.7kbits/s speed=0.0249x elapsed=0:03:57.86    \nframe=  358 fps=1.5 q=30.0 size=    6656KiB time=00:00:05.95 bitrate=9164.0kbits/s speed=0.025x elapsed=0:03:58.37    \nframe=  359 fps=1.5 q=31.0 size=    6656KiB time=00:00:05.96 bitrate=9138.4kbits/s speed=0.025x elapsed=0:03:58.89    \nframe=  360 fps=1.5 q=26.0 size=    6656KiB time=00:00:05.98 bitrate=9113.0kbits/s speed=0.025x elapsed=0:03:59.41    \nframe=  362 fps=1.5 q=25.0 size=    6656KiB time=00:00:06.01 bitrate=9062.5kbits/s speed=0.0251x elapsed=0:03:59.93    \nframe=  363 fps=1.5 q=34.0 size=    6656KiB time=00:00:06.03 bitrate=9037.5kbits/s speed=0.0251x elapsed=0:04:00.43    \nframe=  364 fps=1.5 q=32.0 size=    6656KiB time=00:00:06.05 bitrate=9012.6kbits/s speed=0.0251x elapsed=0:04:00.95    \nframe=  367 fps=1.5 q=33.0 size=    6656KiB time=00:00:06.10 bitrate=8938.7kbits/s speed=0.0253x elapsed=0:04:01.47    \nframe=  368 fps=1.5 q=31.0 size=    6656KiB time=00:00:06.11 bitrate=8914.3kbits/s speed=0.0253x elapsed=0:04:01.98    \nframe=  371 fps=1.5 q=34.0 size=    6656KiB time=00:00:06.16 bitrate=8842.0kbits/s speed=0.0254x elapsed=0:04:02.50    \nframe=  374 fps=1.5 q=31.0 size=    6656KiB time=00:00:06.21 bitrate=8770.9kbits/s speed=0.0256x elapsed=0:04:03.01    \nframe=  375 fps=1.5 q=34.0 size=    6656KiB time=00:00:06.23 bitrate=8747.5kbits/s speed=0.0256x elapsed=0:04:03.53    \nframe=  376 fps=1.5 q=33.0 size=    6656KiB time=00:00:06.25 bitrate=8724.2kbits/s speed=0.0256x elapsed=0:04:04.05    \nframe=  379 fps=1.5 q=33.0 size=    6656KiB time=00:00:06.30 bitrate=8654.9kbits/s speed=0.0258x elapsed=0:04:04.56    \nframe=  380 fps=1.6 q=31.0 size=    6656KiB time=00:00:06.31 bitrate=8632.1kbits/s speed=0.0258x elapsed=0:04:05.07    \nframe=  382 fps=1.6 q=26.0 size=    6656KiB time=00:00:06.35 bitrate=8586.8kbits/s speed=0.0259x elapsed=0:04:05.59    \nframe=  384 fps=1.6 q=31.0 size=    6656KiB time=00:00:06.38 bitrate=8541.9kbits/s speed=0.0259x elapsed=0:04:06.10    \nframe=  387 fps=1.6 q=34.0 size=    6656KiB time=00:00:06.43 bitrate=8475.5kbits/s speed=0.0261x elapsed=0:04:06.63    \nframe=  389 fps=1.6 q=34.0 size=    6656KiB time=00:00:06.46 bitrate=8431.8kbits/s speed=0.0262x elapsed=0:04:07.13    \nframe=  390 fps=1.6 q=31.0 size=    6656KiB time=00:00:06.48 bitrate=8410.2kbits/s speed=0.0262x elapsed=0:04:07.66    \nframe=  391 fps=1.6 q=31.0 size=    6656KiB time=00:00:06.50 bitrate=8388.6kbits/s speed=0.0262x elapsed=0:04:08.17    \nframe=  393 fps=1.6 q=31.0 size=    6656KiB time=00:00:06.53 bitrate=8345.8kbits/s speed=0.0263x elapsed=0:04:08.69    \nframe=  395 fps=1.6 q=34.0 size=    6656KiB time=00:00:06.56 bitrate=8303.4kbits/s speed=0.0264x elapsed=0:04:09.19    \nframe=  395 fps=1.6 q=34.0 size=    6656KiB time=00:00:06.56 bitrate=8303.4kbits/s speed=0.0263x elapsed=0:04:09.72    \nframe=  396 fps=1.6 q=32.0 size=    6656KiB time=00:00:06.58 bitrate=8282.4kbits/s speed=0.0263x elapsed=0:04:10.23    \nframe=  398 fps=1.6 q=28.0 size=    6656KiB time=00:00:06.61 bitrate=8240.7kbits/s speed=0.0264x elapsed=0:04:10.75    \nframe=  400 fps=1.6 q=31.0 size=    6656KiB time=00:00:06.65 bitrate=8199.4kbits/s speed=0.0265x elapsed=0:04:11.26    \nframe=  401 fps=1.6 q=33.0 size=    6656KiB time=00:00:06.66 bitrate=8178.9kbits/s speed=0.0265x elapsed=0:04:11.78    \nframe=  403 fps=1.6 q=34.0 size=    6656KiB time=00:00:06.70 bitrate=8138.2kbits/s speed=0.0266x elapsed=0:04:12.29    \nframe=  404 fps=1.6 q=33.0 size=    6656KiB time=00:00:06.71 bitrate=8118.0kbits/s speed=0.0266x elapsed=0:04:12.81    \nframe=  405 fps=1.6 q=34.0 size=    6656KiB time=00:00:06.73 bitrate=8097.9kbits/s speed=0.0266x elapsed=0:04:13.33    \nframe=  406 fps=1.6 q=31.0 size=    6656KiB time=00:00:06.75 bitrate=8077.9kbits/s speed=0.0266x elapsed=0:04:13.84    \nframe=  407 fps=1.6 q=34.0 size=    6656KiB time=00:00:06.76 bitrate=8058.0kbits/s speed=0.0266x elapsed=0:04:14.36    \nframe=  408 fps=1.6 q=33.0 size=    6656KiB time=00:00:06.78 bitrate=8038.2kbits/s speed=0.0266x elapsed=0:04:14.87    \nframe=  410 fps=1.6 q=26.0 size=    6656KiB time=00:00:06.81 bitrate=7998.9kbits/s speed=0.0267x elapsed=0:04:15.39    \nframe=  411 fps=1.6 q=33.0 size=    6656KiB time=00:00:06.83 bitrate=7979.4kbits/s speed=0.0267x elapsed=0:04:15.90    \nframe=  412 fps=1.6 q=31.0 size=    6656KiB time=00:00:06.85 bitrate=7960.0kbits/s speed=0.0267x elapsed=0:04:16.42    \nframe=  413 fps=1.6 q=33.0 size=    6656KiB time=00:00:06.86 bitrate=7940.7kbits/s speed=0.0267x elapsed=0:04:16.94    \nframe=  415 fps=1.6 q=32.0 size=    6656KiB time=00:00:06.90 bitrate=7902.3kbits/s speed=0.0268x elapsed=0:04:17.45    \nframe=  417 fps=1.6 q=32.0 size=    6656KiB time=00:00:06.93 bitrate=7864.3kbits/s speed=0.0269x elapsed=0:04:17.96    \nframe=  419 fps=1.6 q=33.0 size=    6656KiB time=00:00:06.96 bitrate=7826.7kbits/s speed=0.027x elapsed=0:04:18.48    \nframe=  420 fps=1.6 q=32.0 size=    6656KiB time=00:00:06.98 bitrate=7808.0kbits/s speed=0.027x elapsed=0:04:19.00    \nframe=  422 fps=1.6 q=30.0 size=    6656KiB time=00:00:07.01 bitrate=7770.9kbits/s speed=0.027x elapsed=0:04:19.51    \nframe=  422 fps=1.6 q=30.0 size=    6656KiB time=00:00:07.01 bitrate=7770.9kbits/s speed=0.027x elapsed=0:04:20.03    \nframe=  423 fps=1.6 q=33.0 size=    6656KiB time=00:00:07.03 bitrate=7752.5kbits/s speed=0.027x elapsed=0:04:20.54    \nframe=  424 fps=1.6 q=32.0 size=    6656KiB time=00:00:07.05 bitrate=7734.2kbits/s speed=0.027x elapsed=0:04:21.06    \nframe=  425 fps=1.6 q=33.0 size=    6656KiB time=00:00:07.06 bitrate=7715.9kbits/s speed=0.027x elapsed=0:04:21.58    \nframe=  427 fps=1.6 q=33.0 size=    6656KiB time=00:00:07.10 bitrate=7679.7kbits/s speed=0.0271x elapsed=0:04:22.09    \nframe=  429 fps=1.6 q=33.0 size=    6656KiB time=00:00:07.13 bitrate=7643.8kbits/s speed=0.0272x elapsed=0:04:22.61    \nframe=  431 fps=1.6 q=33.0 size=    6656KiB time=00:00:07.16 bitrate=7608.3kbits/s speed=0.0272x elapsed=0:04:23.13    \nframe=  433 fps=1.6 q=33.0 size=    6656KiB time=00:00:07.20 bitrate=7573.0kbits/s speed=0.0273x elapsed=0:04:23.64    \nframe=  434 fps=1.6 q=15.0 size=    6656KiB time=00:00:07.21 bitrate=7555.6kbits/s speed=0.0273x elapsed=0:04:24.15    \nframe=  436 fps=1.6 q=32.0 size=    6656KiB time=00:00:07.25 bitrate=7520.8kbits/s speed=0.0274x elapsed=0:04:24.67    \nframe=  438 fps=1.7 q=29.0 size=    6656KiB time=00:00:07.28 bitrate=7486.4kbits/s speed=0.0275x elapsed=0:04:25.18    \nframe=  438 fps=1.6 q=29.0 size=    6656KiB time=00:00:07.28 bitrate=7486.4kbits/s speed=0.0274x elapsed=0:04:25.70    \nframe=  439 fps=1.6 q=33.0 size=    6656KiB time=00:00:07.30 bitrate=7469.3kbits/s speed=0.0274x elapsed=0:04:26.21    \nframe=  440 fps=1.6 q=32.0 size=    6656KiB time=00:00:07.31 bitrate=7452.3kbits/s speed=0.0274x elapsed=0:04:26.73    \nframe=  442 fps=1.7 q=24.0 size=    6656KiB time=00:00:07.35 bitrate=7418.5kbits/s speed=0.0275x elapsed=0:04:27.25    \nframe=  443 fps=1.7 q=33.0 size=    6656KiB time=00:00:07.36 bitrate=7401.7kbits/s speed=0.0275x elapsed=0:04:27.76    \nframe=  445 fps=1.7 q=33.0 size=    6656KiB time=00:00:07.40 bitrate=7368.4kbits/s speed=0.0276x elapsed=0:04:28.28    \nframe=  447 fps=1.7 q=32.0 size=    6656KiB time=00:00:07.43 bitrate=7335.3kbits/s speed=0.0277x elapsed=0:04:28.81    \nframe=  449 fps=1.7 q=32.0 size=    6656KiB time=00:00:07.46 bitrate=7302.6kbits/s speed=0.0277x elapsed=0:04:29.34    \nframe=  450 fps=1.7 q=14.0 size=    6656KiB time=00:00:07.48 bitrate=7286.3kbits/s speed=0.0277x elapsed=0:04:29.85    \nframe=  451 fps=1.7 q=33.0 size=    6656KiB time=00:00:07.50 bitrate=7270.1kbits/s speed=0.0277x elapsed=0:04:30.37    \nframe=  454 fps=1.7 q=29.0 size=    6656KiB time=00:00:07.55 bitrate=7222.0kbits/s speed=0.0279x elapsed=0:04:30.88    \nframe=  455 fps=1.7 q=33.0 size=    6656KiB time=00:00:07.56 bitrate=7206.1kbits/s speed=0.0279x elapsed=0:04:31.40    \nframe=  456 fps=1.7 q=32.0 size=    6656KiB time=00:00:07.58 bitrate=7190.2kbits/s speed=0.0279x elapsed=0:04:31.93    \nframe=  459 fps=1.7 q=33.0 size=    6656KiB time=00:00:07.63 bitrate=7143.1kbits/s speed=0.028x elapsed=0:04:32.46    \nframe=  459 fps=1.7 q=33.0 size=    6656KiB time=00:00:07.63 bitrate=7143.1kbits/s speed=0.028x elapsed=0:04:32.98    \nframe=  461 fps=1.7 q=29.0 size=    6656KiB time=00:00:07.66 bitrate=7112.1kbits/s speed=0.028x elapsed=0:04:33.49    \nframe=  463 fps=1.7 q=32.0 size=    6656KiB time=00:00:07.70 bitrate=7081.3kbits/s speed=0.0281x elapsed=0:04:34.01    \nframe=  466 fps=1.7 q=14.0 size=    6656KiB time=00:00:07.75 bitrate=7035.6kbits/s speed=0.0282x elapsed=0:04:34.60    \nframe=  470 fps=1.7 q=29.0 size=    6656KiB time=00:00:07.81 bitrate=6975.6kbits/s speed=0.0284x elapsed=0:04:35.16    \nframe=  471 fps=1.7 q=33.0 size=    6656KiB time=00:00:07.83 bitrate=6960.8kbits/s speed=0.0284x elapsed=0:04:35.70    \nframe=  473 fps=1.7 q=33.0 size=    6656KiB time=00:00:07.85 bitrate=6946.0kbits/s speed=0.0284x elapsed=0:04:36.23    \nframe=  475 fps=1.7 q=33.0 size=    6656KiB time=00:00:07.90 bitrate=6902.0kbits/s speed=0.0285x elapsed=0:04:36.76    \nframe=  479 fps=1.7 q=33.0 size=    6656KiB time=00:00:07.95 bitrate=6858.6kbits/s speed=0.0287x elapsed=0:04:37.33    \nframe=  480 fps=1.7 q=31.0 size=    6656KiB time=00:00:07.98 bitrate=6830.0kbits/s speed=0.0287x elapsed=0:04:37.87    \nframe=  482 fps=1.7 q=13.0 size=    6656KiB time=00:00:08.01 bitrate=6801.6kbits/s speed=0.0288x elapsed=0:04:38.45    \nframe=  484 fps=1.7 q=32.0 size=    6656KiB time=00:00:08.05 bitrate=6773.4kbits/s speed=0.0289x elapsed=0:04:38.97    \nframe=  485 fps=1.7 q=33.0 size=    6656KiB time=00:00:08.06 bitrate=6759.4kbits/s speed=0.0289x elapsed=0:04:39.53    \nframe=  488 fps=1.7 q=32.0 size=    6656KiB time=00:00:08.11 bitrate=6717.8kbits/s speed=0.029x elapsed=0:04:40.19    \nframe=  490 fps=1.7 q=25.0 size=    6656KiB time=00:00:08.15 bitrate=6690.3kbits/s speed=0.029x elapsed=0:04:40.70    \nframe=  492 fps=1.7 q=32.0 size=    6656KiB time=00:00:08.18 bitrate=6663.0kbits/s speed=0.0291x elapsed=0:04:41.22    \nframe=  494 fps=1.8 q=30.0 size=    6656KiB time=00:00:08.21 bitrate=6636.0kbits/s speed=0.0292x elapsed=0:04:41.73    \nframe=  497 fps=1.8 q=29.0 size=    6656KiB time=00:00:08.26 bitrate=6595.9kbits/s speed=0.0293x elapsed=0:04:42.25    \nframe=  499 fps=1.8 q=33.0 size=    6656KiB time=00:00:08.30 bitrate=6569.4kbits/s speed=0.0294x elapsed=0:04:42.77    \nframe=  501 fps=1.8 q=33.0 size=    6656KiB time=00:00:08.33 bitrate=6543.1kbits/s speed=0.0294x elapsed=0:04:43.28    \nframe=  501 fps=1.8 q=33.0 size=    6656KiB time=00:00:08.33 bitrate=6543.1kbits/s speed=0.0294x elapsed=0:04:43.79    \nframe=  506 fps=1.8 q=24.0 size=    6656KiB time=00:00:08.41 bitrate=6478.3kbits/s speed=0.0296x elapsed=0:04:44.31    \nframe=  510 fps=1.8 q=29.0 size=    6656KiB time=00:00:08.48 bitrate=6427.4kbits/s speed=0.0298x elapsed=0:04:44.83    \nframe=  510 fps=1.8 q=29.0 size=    6656KiB time=00:00:08.48 bitrate=6427.4kbits/s speed=0.0297x elapsed=0:04:45.34    \nframe=  510 fps=1.8 q=29.0 size=    6656KiB time=00:00:08.48 bitrate=6427.4kbits/s speed=0.0297x elapsed=0:04:45.85    \nframe=  514 fps=1.8 q=14.0 size=    6656KiB time=00:00:08.55 bitrate=6377.3kbits/s speed=0.0299x elapsed=0:04:46.37    \nframe=  518 fps=1.8 q=29.0 size=    6656KiB time=00:00:08.61 bitrate=6328.0kbits/s speed=0.03x elapsed=0:04:46.89    \nframe=  518 fps=1.8 q=29.0 size=    6656KiB time=00:00:08.61 bitrate=6328.0kbits/s speed=0.03x elapsed=0:04:47.40    \nframe=  522 fps=1.8 q=23.0 size=    6656KiB time=00:00:08.68 bitrate=6279.4kbits/s speed=0.0302x elapsed=0:04:47.91    \nframe=  522 fps=1.8 q=23.0 size=    6656KiB time=00:00:08.68 bitrate=6279.4kbits/s speed=0.0301x elapsed=0:04:48.43    \nframe=  522 fps=1.8 q=23.0 size=    6656KiB time=00:00:08.68 bitrate=6279.4kbits/s speed=0.0301x elapsed=0:04:48.96    \nframe=  526 fps=1.8 q=26.0 size=    6656KiB time=00:00:08.75 bitrate=6231.5kbits/s speed=0.0302x elapsed=0:04:49.47    \nframe=  526 fps=1.8 q=26.0 size=    6656KiB time=00:00:08.75 bitrate=6231.5kbits/s speed=0.0302x elapsed=0:04:49.98    \nframe=  530 fps=1.8 q=12.0 size=    6656KiB time=00:00:08.81 bitrate=6184.4kbits/s speed=0.0303x elapsed=0:04:50.50    \nframe=  532 fps=1.8 q=32.0 size=    6656KiB time=00:00:08.85 bitrate=6161.1kbits/s speed=0.0304x elapsed=0:04:51.01    \nframe=  534 fps=1.8 q=29.0 size=    6656KiB time=00:00:08.88 bitrate=6138.0kbits/s speed=0.0305x elapsed=0:04:51.53    \nframe=  538 fps=1.8 q=24.0 size=    6656KiB time=00:00:08.95 bitrate=6092.3kbits/s speed=0.0306x elapsed=0:04:52.05    \nframe=  538 fps=1.8 q=24.0 size=    6656KiB time=00:00:08.95 bitrate=6092.3kbits/s speed=0.0306x elapsed=0:04:52.55    \nframe=  538 fps=1.8 q=24.0 size=    6656KiB time=00:00:08.95 bitrate=6092.3kbits/s speed=0.0305x elapsed=0:04:53.07    \nframe=  538 fps=1.8 q=24.0 size=    6656KiB time=00:00:08.95 bitrate=6092.3kbits/s speed=0.0305x elapsed=0:04:53.59    \nframe=  540 fps=1.8 q=30.0 size=    6656KiB time=00:00:08.98 bitrate=6069.7kbits/s speed=0.0305x elapsed=0:04:54.10    \nframe=  542 fps=1.8 q=26.0 size=    6656KiB time=00:00:09.01 bitrate=6047.2kbits/s speed=0.0306x elapsed=0:04:54.62    \nframe=  544 fps=1.8 q=29.0 size=    6656KiB time=00:00:09.05 bitrate=6025.0kbits/s speed=0.0307x elapsed=0:04:55.14    \nframe=  546 fps=1.8 q=14.0 size=    6656KiB time=00:00:09.08 bitrate=6002.9kbits/s speed=0.0307x elapsed=0:04:55.65    \nframe=  550 fps=1.9 q=29.0 size=    6656KiB time=00:00:09.15 bitrate=5959.1kbits/s speed=0.0309x elapsed=0:04:56.17    \nframe=  552 fps=1.9 q=32.0 size=    6656KiB time=00:00:09.18 bitrate=5937.5kbits/s speed=0.031x elapsed=0:04:56.68    \nframe=  554 fps=1.9 q=24.0 size=    6656KiB time=00:00:09.21 bitrate=5916.0kbits/s speed=0.031x elapsed=0:04:57.20    \nframe=  554 fps=1.9 q=24.0 size=    6656KiB time=00:00:09.21 bitrate=5916.0kbits/s speed=0.031x elapsed=0:04:57.71    \nframe=  554 fps=1.9 q=24.0 size=    6656KiB time=00:00:09.21 bitrate=5916.0kbits/s speed=0.0309x elapsed=0:04:58.24    \nframe=  558 fps=1.9 q=26.0 size=    6656KiB time=00:00:09.28 bitrate=5873.5kbits/s speed=0.0311x elapsed=0:04:58.75    \nframe=  558 fps=1.9 q=26.0 size=    6656KiB time=00:00:09.28 bitrate=5873.5kbits/s speed=0.031x elapsed=0:04:59.26    \nframe=  560 fps=1.9 q=29.0 size=    6656KiB time=00:00:09.31 bitrate=5852.5kbits/s speed=0.0311x elapsed=0:04:59.78    \nframe=  562 fps=1.9 q=13.0 size=    6656KiB time=00:00:09.35 bitrate=5831.7kbits/s speed=0.0311x elapsed=0:05:00.29    \nframe=  566 fps=1.9 q=29.0 size=    6656KiB time=00:00:09.41 bitrate=5790.4kbits/s speed=0.0313x elapsed=0:05:00.82    \nframe=  568 fps=1.9 q=31.0 size=    6656KiB time=00:00:09.45 bitrate=5769.9kbits/s speed=0.0314x elapsed=0:05:01.32    \nframe=  570 fps=1.9 q=24.0 size=    6656KiB time=00:00:09.48 bitrate=5749.7kbits/s speed=0.0314x elapsed=0:05:01.84    \nframe=  570 fps=1.9 q=24.0 size=    6656KiB time=00:00:09.48 bitrate=5749.7kbits/s speed=0.0314x elapsed=0:05:02.36    \nframe=  574 fps=1.9 q=26.0 size=    6656KiB time=00:00:09.55 bitrate=5709.5kbits/s speed=0.0315x elapsed=0:05:02.88    \nframe=  574 fps=1.9 q=26.0 size=    6656KiB time=00:00:09.55 bitrate=5709.5kbits/s speed=0.0315x elapsed=0:05:03.39    \nframe=  578 fps=1.9 q=14.0 size=    6656KiB time=00:00:09.61 bitrate=5669.9kbits/s speed=0.0316x elapsed=0:05:03.91    \nframe=  580 fps=1.9 q=34.0 size=    6656KiB time=00:00:09.65 bitrate=5650.4kbits/s speed=0.0317x elapsed=0:05:04.42    \nframe=  582 fps=1.9 q=34.0 size=    6656KiB time=00:00:09.68 bitrate=5630.9kbits/s speed=0.0318x elapsed=0:05:04.93    \nframe=  586 fps=1.9 q=29.0 size=    6656KiB time=00:00:09.75 bitrate=5592.4kbits/s speed=0.0319x elapsed=0:05:05.45    \nframe=  586 fps=1.9 q=29.0 size=    6656KiB time=00:00:09.75 bitrate=5592.4kbits/s speed=0.0319x elapsed=0:05:05.97    \nframe=  590 fps=1.9 q=33.0 size=    6656KiB time=00:00:09.81 bitrate=5554.4kbits/s speed=0.032x elapsed=0:05:06.48    \n[out#0/matroska @ 00000255f3309380] video:10692KiB audio:0KiB subtitle:0KiB other streams:0KiB global headers:0KiB muxing overhead: 0.031803%\nframe=  600 fps=2.0 q=30.0 Lsize=   10695KiB time=00:00:09.98 bitrate=8776.3kbits/s speed=0.0325x elapsed=0:05:06.99    \n",
  "seconds": 308.84866428375244,
  "probe_out": {}
}